<svg width="36" height="36" viewBox="0 0 36 36" fill="none" xmlns="http://www.w3.org/2000/svg">
<circle cx="18" cy="18" r="18" fill="#404040"/>
<g clip-path="url(#clip0)">
<path d="M18.0028 13.3784C15.4505 13.3784 13.3843 15.4469 13.3843 17.9969C13.3843 20.5492 15.4528 22.6154 18.0028 22.6154C20.555 22.6154 22.6213 20.5469 22.6213 17.9969C22.6213 15.4447 20.5528 13.3784 18.0028 13.3784ZM18.0028 20.9947C16.346 20.9947 15.005 19.6529 15.005 17.9969C15.005 16.3409 16.3468 14.9992 18.0028 14.9992C19.6588 14.9992 21.0005 16.3409 21.0005 17.9969C21.0013 19.6529 19.6595 20.9947 18.0028 20.9947Z" fill="#111111"/>
<path d="M21.7107 9.058C20.0547 8.98075 15.9529 8.9845 14.2954 9.058C12.8389 9.12625 11.5542 9.478 10.5184 10.5138C8.78743 12.2448 9.00868 14.5773 9.00868 17.998C9.00868 21.499 8.81368 23.7775 10.5184 25.4823C12.2562 27.2193 14.6224 26.992 18.0027 26.992C21.4707 26.992 22.6677 26.9943 23.8939 26.5195C25.5612 25.8723 26.8197 24.382 26.9427 21.7053C27.0207 20.0485 27.0162 15.9475 26.9427 14.29C26.7942 11.1303 25.0984 9.214 21.7107 9.058ZM24.3319 24.337C23.1972 25.4718 21.6229 25.3705 17.9809 25.3705C14.2309 25.3705 12.7272 25.426 11.6299 24.3258C10.3662 23.068 10.5949 21.0483 10.5949 17.986C10.5949 13.8423 10.1697 10.858 14.3284 10.645C15.2839 10.6113 15.5652 10.6 17.9704 10.6L18.0042 10.6225C22.0009 10.6225 25.1367 10.204 25.3249 14.362C25.3677 15.3108 25.3774 15.5958 25.3774 17.9973C25.3767 21.7038 25.4472 23.2165 24.3319 24.337Z" fill="#111111"/>
<path d="M22.8043 14.2757C23.4004 14.2757 23.8836 13.7925 23.8836 13.1964C23.8836 12.6004 23.4004 12.1172 22.8043 12.1172C22.2083 12.1172 21.7251 12.6004 21.7251 13.1964C21.7251 13.7925 22.2083 14.2757 22.8043 14.2757Z" fill="#111111"/>
</g>
<defs>
<clipPath id="clip0">
<rect width="18" height="18" fill="white" transform="translate(9 9)"/>
</clipPath>
</defs>
</svg>
